<svg xmlns="http://www.w3.org/2000/svg">
  <symbol id="calculator" viewBox="0 0 24 24">
    <rect x="4" y="2" width="16" height="20" rx="2" />
    <path d="M8 6h8v4H8zM8 14h.01M12 14h.01M16 14h.01M8 18h.01M12 18h.01M16 18h.01" />
  </symbol>
  <symbol id="chart" viewBox="0 0 24 24">
    <path d="m3 17 6-6 4 4 8-9" />
    <path d="M15 6h6v6" />
  </symbol>
  <symbol id="coins" viewBox="0 0 24 24">
    <ellipse cx="12" cy="5" rx="7" ry="3" />
    <path d="M5 5v5c0 1.7 3.1 3 7 3s7-1.3 7-3V5M5 10v5c0 1.7 3.1 3 7 3s7-1.3 7-3v-5M5 15v4c0 1.7 3.1 3 7 3s7-1.3 7-3v-4" />
  </symbol>
  <symbol id="wallet" viewBox="0 0 24 24">
    <path d="M4 5h14a2 2 0 0 1 2 2v12H4a2 2 0 0 1-2-2V7a2 2 0 0 1 2-2Z" />
    <path d="M20 10h-5a2 2 0 0 0 0 4h5M16 12h.01" />
  </symbol>
  <symbol id="receipt" viewBox="0 0 24 24">
    <path d="M6 3h12v18l-3-2-3 2-3-2-3 2V3Z" />
    <path d="M9 8h6M9 12h6M9 16h3" />
  </symbol>
  <symbol id="percent" viewBox="0 0 24 24">
    <path d="m19 5-14 14" />
    <circle cx="7" cy="7" r="2" />
    <circle cx="17" cy="17" r="2" />
  </symbol>
  <symbol id="info" viewBox="0 0 24 24">
    <circle cx="12" cy="12" r="9" />
    <path d="M12 11v5M12 8h.01" />
  </symbol>
  <symbol id="arrow-right" viewBox="0 0 24 24">
    <path d="M5 12h14M13 6l6 6-6 6" />
  </symbol>
</svg>
